<?xml version="1.0" encoding="UTF-8"?>
<!DOCTYPE svg PUBLIC "-//W3C//DTD SVG 1.1//EN" "http://www.w3.org/Graphics/SVG/1.1/DTD/svg11.dtd">
<!-- Creator: CorelDRAW X7 -->
<svg xmlns="http://www.w3.org/2000/svg" xml:space="preserve" width="415.925mm" height="415.925mm" version="1.1" style="shape-rendering:geometricPrecision; text-rendering:geometricPrecision; image-rendering:optimizeQuality; fill-rule:evenodd; clip-rule:evenodd"
viewBox="0 0 41592 41592"
 xmlns:xlink="http://www.w3.org/1999/xlink">
 <defs>
  <style type="text/css">
   <![CDATA[
    .fil1 {fill:#FEFEFE}
    .fil0 {fill:#1F1B20}
   ]]>
  </style>
 </defs>
 <g id="Слой_x0020_1">
  <metadata id="CorelCorpID_0Corel-Layer"/>
  <g id="_608406448">
   <polygon class="fil0" points="0,-30 41623,-30 41623,41592 0,41592 "/>
  </g>
  <g id="_608403152">
   <path class="fil1" d="M21028 2016l15233 15416 -4760 0 -10473 -15416zm-15664 15416l0 0 25717 0 -10482 -15416 -15235 15416zm15235 15765l0 0 -15235 -15413 25717 0 -10482 15413zm-12435 -773l0 0 -915 0 -1885 5841 851 0 366 -1217 2306 0 398 1217 851 0 -1972 -5841zm493 3947l0 0 -1869 0 867 -2968c16,-27 29,-40 39,-40 16,0 29,11 40,32l923 2976zm2966 -1400l0 0 48 55c37,-10 74,-37 111,-79 276,-340 480,-563 613,-669 227,-175 453,-263 676,-263 450,0 707,306 771,916l24 16 24 -8c-11,5 31,-40 127,-136 504,-530 933,-795 1288,-795 255,0 448,95 581,286 101,143 151,456 151,939l0 3032 -684 0 0 -2960c0,-239 -19,-406 -56,-502 -58,-159 -180,-238 -365,-238 -213,0 -570,315 -1074,947l0 2753 -684 0 0 -3088c0,-403 -125,-604 -374,-604 -154,0 -345,108 -572,326 -101,90 -284,316 -549,676l0 2690 -684 0 0 -4035 628 -238 0 979zm5973 -613l0 0c275,-234 593,-350 954,-350 483,0 864,183 1145,549 265,345 403,785 414,1321l8 382 -2466 0c-10,1034 324,1552 1002,1552 313,0 594,-117 843,-350l414 382c-398,350 -848,525 -1352,525 -488,0 -880,-183 -1177,-549 -308,-372 -461,-878 -461,-1520 0,-908 225,-1555 676,-1942zm1805 1416l0 0c0,-376 -69,-673 -207,-891 -148,-239 -358,-358 -628,-358 -350,0 -599,175 -748,525 -79,186 -127,427 -143,724l1726 0zm1853 -2284l0 0 0 947 -596 0 0 454 588 0 0 2563c0,355 135,607 406,756 164,90 347,135 548,135 292,0 562,-69 812,-207l0 -629c-297,154 -531,231 -700,231 -234,0 -350,-124 -350,-374l0 -2475 700 0 0 -454 -660 0 0 -1591 -80 0 -668 644zm3205 1258l0 0 0 -2452 -716 295 0 5674 716 0 0 -2833c244,-361 435,-597 573,-708 159,-128 312,-191 461,-191 265,0 398,167 398,501l0 3231 707 0 0 -3255c0,-673 -275,-1010 -827,-1010 -440,0 -790,193 -1050,581 -111,164 -177,246 -198,246 -43,0 -64,-26 -64,-79zm3627 -645l0 0 620 1926c26,69 82,265 167,589 53,191 90,294 111,310l48 -24c74,-318 154,-618 239,-899l572 -1902 700 0 -1312 4107c-191,594 -382,987 -573,1178 -175,180 -445,270 -811,270 -149,0 -305,-24 -469,-71l0 -780 143 0c101,138 239,207 413,207 170,0 305,-77 406,-231 74,-117 186,-390 334,-820l-1344 -3860 756 0zm4111 3757l0 0c217,0 392,-67 525,-199 122,-122 183,-274 183,-454 0,-164 -56,-295 -167,-390 -96,-85 -321,-215 -676,-390 -387,-191 -658,-377 -811,-557 -159,-186 -239,-414 -239,-685 0,-350 125,-631 374,-843 233,-202 522,-303 867,-303 392,0 763,109 1113,327l-207 565c-355,-255 -668,-382 -938,-382 -207,0 -366,58 -477,175 -96,101 -143,225 -143,374 0,228 167,427 501,597l668 334c514,249 771,613 771,1090 0,372 -127,674 -382,908 -259,233 -588,350 -986,350 -403,0 -811,-133 -1224,-398l278 -541c350,281 673,422 970,422zm-696 -20076l0 0 -10473 15413 15233 -15413 -4760 0zm3002 15706l0 0 668 -644 80 0 0 1591 660 0 0 454 -700 0 0 2475c0,250 117,374 350,374 170,0 403,-77 700,-231l0 629c-249,138 -520,207 -811,207 -202,0 -385,-45 -549,-135 -270,-149 -406,-401 -406,-756l0 -2563 -588 0 0 -454 596 0 0 -947z"/>
  </g>
 </g>
</svg>
