<?xml version="1.0" encoding="UTF-8"?>
<!DOCTYPE svg PUBLIC "-//W3C//DTD SVG 1.1//EN" "http://www.w3.org/Graphics/SVG/1.1/DTD/svg11.dtd">
<!-- Creator: CorelDRAW X7 -->
<svg xmlns="http://www.w3.org/2000/svg" xml:space="preserve" width="415.925mm" height="415.925mm" version="1.1" style="shape-rendering:geometricPrecision; text-rendering:geometricPrecision; image-rendering:optimizeQuality; fill-rule:evenodd; clip-rule:evenodd"
viewBox="0 0 41592 41592"
 xmlns:xlink="http://www.w3.org/1999/xlink">
 <defs>
  <style type="text/css">
   <![CDATA[
    .fil0 {fill:#662F85}
   ]]>
  </style>
 </defs>
 <g id="Слой_x0020_1">
  <metadata id="CorelCorpID_0Corel-Layer"/>
  <g id="_604559728">
   <g>
    <path class="fil0" d="M6788 36370l867 -2969c16,-26 29,-39 40,-39 16,0 29,10 39,32l923 2976 -1869 0zm2497 1894l0 0 851 0 -1972 -5841 -915 0 -1884 5841 851 0 365 -1218 2307 0 397 1218z"/>
   </g>
   <g>
    <path class="fil0" d="M10995 38264l684 0 0 -2690c265,-361 448,-586 549,-676 228,-218 418,-327 572,-327 249,0 374,202 374,605l0 3088 684 0 0 -2754c504,-631 861,-947 1074,-947 185,0 307,80 365,239 37,96 56,263 56,502l0 2960 684 0 0 -3032c0,-483 -50,-796 -151,-939 -133,-191 -326,-287 -581,-287 -355,0 -784,266 -1288,796 -95,96 -138,141 -127,135l-24 8 -24 -16c-64,-610 -321,-915 -771,-915 -223,0 -448,88 -676,263 -133,106 -337,329 -613,668 -37,43 -74,69 -111,80l-48 -56 0 -979 -628 239 0 4035z"/>
   </g>
   <g>
    <path class="fil0" d="M20109 35877c-11,-536 -149,-977 -414,-1322 -281,-366 -663,-549 -1145,-549 -361,0 -679,117 -954,350 -451,388 -676,1035 -676,1942 0,642 153,1149 461,1520 297,366 689,550 1177,550 504,0 954,-176 1352,-526l-414 -382c-249,234 -530,350 -843,350 -678,0 -1012,-517 -1002,-1551l2466 0 -8 -382zm-2434 -104l0 0c16,-297 64,-538 143,-724 149,-350 398,-525 748,-525 270,0 480,119 628,358 138,217 207,514 207,891l-1726 0z"/>
   </g>
   <g>
    <path class="fil0" d="M20658 34890l588 0 0 2562c0,356 135,608 406,756 164,91 347,136 548,136 292,0 562,-69 812,-207l0 -629c-297,154 -531,231 -700,231 -234,0 -350,-125 -350,-374l0 -2475 700 0 0 -454 -660 0 0 -1592 -80 0 -668 645 0 947 -596 0 0 454z"/>
   </g>
   <g>
    <path class="fil0" d="M23743 38264l716 0 0 -2833c244,-361 435,-597 572,-708 160,-128 313,-191 462,-191 265,0 397,167 397,501l0 3231 708 0 0 -3255c0,-674 -276,-1011 -827,-1011 -440,0 -790,194 -1050,581 -111,165 -177,247 -199,247 -42,0 -63,-26 -63,-80l0 -2451 -716 295 0 5674z"/>
   </g>
   <g>
    <path class="fil0" d="M27378 39585c164,48 320,72 469,72 366,0 636,-90 811,-271 191,-191 382,-583 572,-1178l1313 -4106 -700 0 -573 1902c-85,281 -164,581 -238,899l-48 24c-21,-16 -58,-119 -111,-310 -85,-324 -141,-520 -167,-589l-621 -1926 -755 0 1344 3860c-149,429 -260,703 -334,819 -101,154 -236,231 -406,231 -175,0 -313,-69 -413,-207l-143 0 0 780z"/>
   </g>
   <g>
    <path class="fil0" d="M33366 34364c-350,-217 -721,-326 -1114,-326 -344,0 -633,101 -866,303 -250,212 -374,493 -374,843 0,271 79,499 238,685 154,180 424,366 812,557 355,175 580,305 675,390 112,95 168,225 168,390 0,180 -61,331 -183,453 -133,133 -308,199 -525,199 -297,0 -621,-140 -971,-422l-278 542c414,265 822,397 1225,397 398,0 726,-116 986,-350 254,-233 382,-536 382,-907 0,-477 -257,-841 -772,-1090l-668 -334c-334,-170 -501,-369 -501,-597 0,-149 48,-274 143,-374 112,-117 271,-176 478,-176 270,0 583,128 938,382l207 -565z"/>
   </g>
   <g>
    <path class="fil0" d="M33906 34890l589 0 0 2562c0,356 135,608 406,756 164,91 347,136 548,136 292,0 562,-69 811,-207l0 -629c-297,154 -530,231 -699,231 -234,0 -350,-125 -350,-374l0 -2475 700 0 0 -454 -661 0 0 -1592 -79 0 -668 645 0 947 -597 0 0 454z"/>
   </g>
   <g>
    <polygon class="fil0" points="5364,17431 20599,2016 31080,17431 "/>
   </g>
   <g>
    <polygon class="fil0" points="5364,17783 31080,17783 20599,33196 "/>
   </g>
   <g>
    <polygon class="fil0" points="21027,2016 36261,17431 31501,17431 "/>
   </g>
   <g>
    <polygon class="fil0" points="31501,17783 36261,17783 21027,33196 "/>
   </g>
  </g>
 </g>
</svg>
